<svg xmlns="http://www.w3.org/2000/svg" width="2400" height="1200" viewBox="0 0 2400 1200">
  <path d="M0.0 0.0 C-60.0 3.6, -60.0 8.4, -120.0 12.0" stroke="rgba(196,181,253,0.180)" stroke-width="1" fill="none"/>
  <path d="M-60.0 4.8 L-224.0 8.4" stroke="rgba(196,181,253,0.126)" stroke-width="0.8" fill="none"/>
  <path d="M888.0 35.8 C921.0 42.6, 921.0 51.6, 954.0 58.4" stroke="rgba(196,181,253,0.254)" stroke-width="1" fill="none"/>
  <path d="M1776.0 71.6 C1782.0 81.6, 1782.0 94.8, 1788.0 104.8" stroke="rgba(196,181,253,0.328)" stroke-width="1" fill="none"/>
  <path d="M264.0 107.4 C243.0 113.3, 243.0 121.3, 222.0 127.2" stroke="rgba(196,181,253,0.221)" stroke-width="1" fill="none"/>
  <path d="M1152.0 143.2 C1104.0 152.3, 1104.0 164.5, 1056.0 173.6" stroke="rgba(196,181,253,0.295)" stroke-width="1" fill="none"/>
  <path d="M1104.0 155.4 L944.0 164.5" stroke="rgba(196,181,253,0.207)" stroke-width="0.8" fill="none"/>
  <path d="M2040.0 179.0 C2085.0 184.1, 2085.0 190.9, 2130.0 196.0" stroke="rgba(196,181,253,0.189)" stroke-width="1" fill="none"/>
  <path d="M528.0 214.8 C546.0 223.1, 546.0 234.1, 564.0 242.4" stroke="rgba(196,181,253,0.263)" stroke-width="1" fill="none"/>
  <path d="M1416.0 250.6 C1407.0 254.9, 1407.0 260.5, 1398.0 264.8" stroke="rgba(196,181,253,0.337)" stroke-width="1" fill="none"/>
  <path d="M2304.0 286.4 C2268.0 293.8, 2268.0 303.8, 2232.0 311.2" stroke="rgba(196,181,253,0.230)" stroke-width="1" fill="none"/>
  <path d="M2268.0 296.3 L2112.0 303.8" stroke="rgba(196,181,253,0.161)" stroke-width="0.8" fill="none"/>
  <path d="M792.0 322.2 C849.0 332.8, 849.0 347.0, 906.0 357.6" stroke="rgba(196,181,253,0.304)" stroke-width="1" fill="none"/>
  <path d="M1680.0 358.0 C1710.0 364.6, 1710.0 373.4, 1740.0 380.0" stroke="rgba(196,181,253,0.198)" stroke-width="1" fill="none"/>
  <path d="M168.0 393.8 C171.0 403.6, 171.0 416.6, 174.0 426.4" stroke="rgba(196,181,253,0.272)" stroke-width="1" fill="none"/>
  <path d="M1056.0 429.6 C1032.0 435.4, 1032.0 443.0, 1008.0 448.8" stroke="rgba(196,181,253,0.346)" stroke-width="1" fill="none"/>
  <path d="M1032.0 437.3 L880.0 443.0" stroke="rgba(196,181,253,0.242)" stroke-width="0.8" fill="none"/>
  <path d="M1944.0 465.4 C1893.0 474.3, 1893.0 486.3, 1842.0 495.2" stroke="rgba(196,181,253,0.239)" stroke-width="1" fill="none"/>
  
</svg>