<svg xmlns="http://www.w3.org/2000/svg" width="2400" height="1200" viewBox="0 0 2400 1200">
  <g transform="translate(360.0,40.0) rotate(-15) scale(1.2)" opacity="0.35">
  <path d="M0,40 Q-15,-20 -5,-45 M0,40 Q15,-20 5,-45 M-5,-45 Q0,-60 5,-45" fill="#1a0f2e" stroke="rgba(196,181,253,0.55)" stroke-width="1.5" stroke-linecap="round" stroke-linejoin="round"/>
</g>
  <g transform="translate(1968.0,257.8) rotate(2) scale(1.5)" opacity="0.35">
  <path d="M0,50 L0,-50 M0,20 L-20,0 M0,20 L20,0 M0,0 L-15,-15 M0,0 L15,-15 M0,-20 L-10,-35 M0,-20 L10,-35" fill="#1a0f2e" stroke="rgba(196,181,253,0.55)" stroke-width="1.5" stroke-linecap="round" stroke-linejoin="round"/>
</g>
  <g transform="translate(1896.0,475.6) rotate(-11) scale(1.7999999999999998)" opacity="0.35">
  <path d="M0,0 Q10,-10 15,0 Q20,15 10,25 Q-5,35 -20,20 Q-35,0 -25,-20 Q-10,-40 15,-35 Q40,-25 40,5" fill="#1a0f2e" stroke="rgba(196,181,253,0.55)" stroke-width="1.5" stroke-linecap="round" stroke-linejoin="round"/>
</g>
  <g transform="translate(1824.0,693.4) rotate(6) scale(2.1)" opacity="0.35">
  <path d="M-30,10 Q-10,-20 10,10 M-30,10 L-38,18 M-30,10 L-22,18 M10,10 L18,18 M10,10 L2,18" fill="#1a0f2e" stroke="rgba(196,181,253,0.55)" stroke-width="1.5" stroke-linecap="round" stroke-linejoin="round"/>
</g>
  <g transform="translate(1752.0,911.2) rotate(-7) scale(1.4)" opacity="0.35">
  <path d="M0,50 L0,-50 M0,30 Q-25,15 -30,0 M0,10 Q-20,-5 -22,-18 M0,-10 Q-15,-22 -16,-34 M0,30 Q25,15 30,0 M0,10 Q20,-5 22,-18 M0,-10 Q15,-22 16,-34" fill="#1a0f2e" stroke="rgba(196,181,253,0.55)" stroke-width="1.5" stroke-linecap="round" stroke-linejoin="round"/>
</g>
  <g transform="translate(1680.0,1049.0) rotate(10) scale(1.7)" opacity="0.35">
  <path d="M5,0 Q20,5 20,20 Q20,40 0,40 Q-25,40 -25,15 Q-25,-15 5,0" fill="#1a0f2e" stroke="rgba(196,181,253,0.55)" stroke-width="1.5" stroke-linecap="round" stroke-linejoin="round"/>
</g>
  
</svg>