<svg xmlns="http://www.w3.org/2000/svg" width="2400" height="1200" viewBox="0 0 2400 1200">
  <circle cx="0.0" cy="0.0" r="4" fill="#fbb86b" opacity="0.550"/>
  <circle cx="888.0" cy="132.0" r="2.5" fill="#c4b5fd" opacity="0.709"/>
  <circle cx="1776.0" cy="264.0" r="2.5" fill="#fbb86b" opacity="0.568"/>
  <circle cx="264.0" cy="396.0" r="2.5" fill="#c4b5fd" opacity="0.727"/>
  <circle cx="1152.0" cy="528.0" r="4" fill="#fbb86b" opacity="0.586"/>
  <circle cx="2040.0" cy="660.0" r="2.5" fill="#c4b5fd" opacity="0.745"/>
  <circle cx="528.0" cy="72.0" r="2.5" fill="#fbb86b" opacity="0.604"/>
  <circle cx="1416.0" cy="204.0" r="2.5" fill="#c4b5fd" opacity="0.763"/>
  <circle cx="2304.0" cy="336.0" r="4" fill="#fbb86b" opacity="0.622"/>
  <circle cx="792.0" cy="468.0" r="2.5" fill="#c4b5fd" opacity="0.781"/>
  <circle cx="1680.0" cy="600.0" r="2.5" fill="#fbb86b" opacity="0.640"/>
  <circle cx="168.0" cy="12.0" r="2.5" fill="#c4b5fd" opacity="0.799"/>
  <circle cx="1056.0" cy="144.0" r="4" fill="#fbb86b" opacity="0.658"/>
  <circle cx="1944.0" cy="276.0" r="2.5" fill="#c4b5fd" opacity="0.817"/>
  <circle cx="432.0" cy="408.0" r="2.5" fill="#fbb86b" opacity="0.676"/>
  <circle cx="1320.0" cy="540.0" r="2.5" fill="#c4b5fd" opacity="0.835"/>
  <circle cx="2208.0" cy="672.0" r="4" fill="#fbb86b" opacity="0.694"/>
  <circle cx="696.0" cy="84.0" r="2.5" fill="#c4b5fd" opacity="0.553"/>
  <circle cx="1584.0" cy="216.0" r="2.5" fill="#fbb86b" opacity="0.712"/>
  <circle cx="72.0" cy="348.0" r="2.5" fill="#c4b5fd" opacity="0.571"/>
  <circle cx="960.0" cy="480.0" r="4" fill="#fbb86b" opacity="0.730"/>
  <circle cx="1848.0" cy="612.0" r="2.5" fill="#c4b5fd" opacity="0.589"/>
  <circle cx="336.0" cy="24.0" r="2.5" fill="#fbb86b" opacity="0.748"/>
  <circle cx="1224.0" cy="156.0" r="2.5" fill="#c4b5fd" opacity="0.607"/>
  <circle cx="2112.0" cy="288.0" r="4" fill="#fbb86b" opacity="0.766"/>
  <circle cx="600.0" cy="420.0" r="2.5" fill="#c4b5fd" opacity="0.625"/>
  <circle cx="1488.0" cy="552.0" r="2.5" fill="#fbb86b" opacity="0.784"/>
  <circle cx="2376.0" cy="684.0" r="2.5" fill="#c4b5fd" opacity="0.643"/>
  <circle cx="864.0" cy="96.0" r="4" fill="#fbb86b" opacity="0.802"/>
  <circle cx="1752.0" cy="228.0" r="2.5" fill="#c4b5fd" opacity="0.661"/>
  
</svg>