<svg xmlns="http://www.w3.org/2000/svg" width="2400" height="1200" viewBox="0 0 2400 1200">
  <circle cx="0.0" cy="0.0" r="3.60" fill="rgba(196,181,253,0.120)"/>
  <circle cx="888.0" cy="14.2" r="8.05" fill="rgba(196,181,253,0.202)"/>
  <circle cx="1776.0" cy="28.4" r="4.10" fill="rgba(196,181,253,0.284)"/>
  <circle cx="264.0" cy="42.6" r="8.56" fill="rgba(196,181,253,0.166)"/>
  <circle cx="1152.0" cy="56.8" r="4.61" fill="rgba(196,181,253,0.248)"/>
  <circle cx="2040.0" cy="71.0" r="9.06" fill="rgba(196,181,253,0.130)"/>
  <circle cx="528.0" cy="85.2" r="5.11" fill="rgba(196,181,253,0.212)"/>
  <circle cx="1416.0" cy="99.4" r="9.56" fill="rgba(196,181,253,0.294)"/>
  <circle cx="2304.0" cy="113.6" r="5.62" fill="rgba(196,181,253,0.176)"/>
  <circle cx="792.0" cy="127.8" r="10.07" fill="rgba(196,181,253,0.258)"/>
  <circle cx="1680.0" cy="142.0" r="6.12" fill="rgba(196,181,253,0.140)"/>
  <circle cx="168.0" cy="156.2" r="10.57" fill="rgba(196,181,253,0.222)"/>
  <circle cx="1056.0" cy="170.4" r="6.62" fill="rgba(196,181,253,0.304)"/>
  <circle cx="1944.0" cy="184.6" r="11.08" fill="rgba(196,181,253,0.186)"/>
  <circle cx="432.0" cy="198.8" r="7.13" fill="rgba(196,181,253,0.268)"/>
  <circle cx="1320.0" cy="213.0" r="11.58" fill="rgba(196,181,253,0.150)"/>
  <circle cx="2208.0" cy="227.2" r="7.63" fill="rgba(196,181,253,0.232)"/>
  <circle cx="696.0" cy="241.4" r="3.68" fill="rgba(196,181,253,0.314)"/>
  <circle cx="1584.0" cy="255.6" r="8.14" fill="rgba(196,181,253,0.196)"/>
  <circle cx="72.0" cy="269.8" r="4.19" fill="rgba(196,181,253,0.278)"/>
  <circle cx="960.0" cy="284.0" r="8.64" fill="rgba(196,181,253,0.160)"/>
  <circle cx="1848.0" cy="298.2" r="4.69" fill="rgba(196,181,253,0.242)"/>
  <circle cx="336.0" cy="312.4" r="9.14" fill="rgba(196,181,253,0.124)"/>
  <circle cx="1224.0" cy="326.6" r="5.20" fill="rgba(196,181,253,0.206)"/>
  <circle cx="2112.0" cy="340.8" r="9.65" fill="rgba(196,181,253,0.288)"/>
  <circle cx="600.0" cy="355.0" r="5.70" fill="rgba(196,181,253,0.170)"/>
  <circle cx="1488.0" cy="369.2" r="10.15" fill="rgba(196,181,253,0.252)"/>
  <circle cx="2376.0" cy="383.4" r="6.20" fill="rgba(196,181,253,0.134)"/>
  <circle cx="864.0" cy="397.6" r="10.66" fill="rgba(196,181,253,0.216)"/>
  <circle cx="1752.0" cy="411.8" r="6.71" fill="rgba(196,181,253,0.298)"/>
  <circle cx="240.0" cy="426.0" r="11.16" fill="rgba(196,181,253,0.180)"/>
  <circle cx="1128.0" cy="440.2" r="7.21" fill="rgba(196,181,253,0.262)"/>
  <circle cx="2016.0" cy="454.4" r="11.66" fill="rgba(196,181,253,0.144)"/>
  <circle cx="504.0" cy="468.6" r="7.72" fill="rgba(196,181,253,0.226)"/>
  <circle cx="1392.0" cy="482.8" r="3.77" fill="rgba(196,181,253,0.308)"/>
  <circle cx="2280.0" cy="497.0" r="8.22" fill="rgba(196,181,253,0.190)"/>
  <circle cx="768.0" cy="511.2" r="4.27" fill="rgba(196,181,253,0.272)"/>
  <circle cx="1656.0" cy="525.4" r="8.72" fill="rgba(196,181,253,0.154)"/>
  <circle cx="144.0" cy="539.6" r="4.78" fill="rgba(196,181,253,0.236)"/>
  <circle cx="1032.0" cy="553.8" r="9.23" fill="rgba(196,181,253,0.318)"/>
  <circle cx="1920.0" cy="568.0" r="5.28" fill="rgba(196,181,253,0.200)"/>
  <circle cx="408.0" cy="582.2" r="9.73" fill="rgba(196,181,253,0.282)"/>
  <circle cx="1296.0" cy="596.4" r="5.78" fill="rgba(196,181,253,0.164)"/>
  <circle cx="2184.0" cy="610.6" r="10.24" fill="rgba(196,181,253,0.246)"/>
  <circle cx="672.0" cy="624.8" r="6.29" fill="rgba(196,181,253,0.128)"/>
  <circle cx="1560.0" cy="639.0" r="10.74" fill="rgba(196,181,253,0.210)"/>
  <circle cx="48.0" cy="653.2" r="6.79" fill="rgba(196,181,253,0.292)"/>
  <circle cx="936.0" cy="667.4" r="11.24" fill="rgba(196,181,253,0.174)"/>
  <circle cx="1824.0" cy="681.6" r="7.30" fill="rgba(196,181,253,0.256)"/>
  <circle cx="312.0" cy="695.8" r="11.75" fill="rgba(196,181,253,0.138)"/>
  <circle cx="1200.0" cy="710.0" r="7.80" fill="rgba(196,181,253,0.220)"/>
  <circle cx="2088.0" cy="724.2" r="3.85" fill="rgba(196,181,253,0.302)"/>
  <circle cx="576.0" cy="738.4" r="8.30" fill="rgba(196,181,253,0.184)"/>
  <circle cx="1464.0" cy="752.6" r="4.36" fill="rgba(196,181,253,0.266)"/>
  <circle cx="2352.0" cy="766.8" r="8.81" fill="rgba(196,181,253,0.148)"/>
  <circle cx="840.0" cy="781.0" r="4.86" fill="rgba(196,181,253,0.230)"/>
  <circle cx="1728.0" cy="795.2" r="9.31" fill="rgba(196,181,253,0.312)"/>
  <circle cx="216.0" cy="809.4" r="5.36" fill="rgba(196,181,253,0.194)"/>
  <circle cx="1104.0" cy="823.6" r="9.82" fill="rgba(196,181,253,0.276)"/>
  <circle cx="1992.0" cy="837.8" r="5.87" fill="rgba(196,181,253,0.158)"/>
  <circle cx="480.0" cy="852.0" r="10.32" fill="rgba(196,181,253,0.240)"/>
  <circle cx="1368.0" cy="866.2" r="6.37" fill="rgba(196,181,253,0.122)"/>
  <circle cx="2256.0" cy="880.4" r="10.82" fill="rgba(196,181,253,0.204)"/>
  <circle cx="744.0" cy="894.6" r="6.88" fill="rgba(196,181,253,0.286)"/>
  <circle cx="1632.0" cy="908.8" r="11.33" fill="rgba(196,181,253,0.168)"/>
  <circle cx="120.0" cy="923.0" r="7.38" fill="rgba(196,181,253,0.250)"/>
  <circle cx="1008.0" cy="937.2" r="11.83" fill="rgba(196,181,253,0.132)"/>
  <circle cx="1896.0" cy="951.4" r="7.88" fill="rgba(196,181,253,0.214)"/>
  <circle cx="384.0" cy="965.6" r="3.94" fill="rgba(196,181,253,0.296)"/>
  <circle cx="1272.0" cy="979.8" r="8.39" fill="rgba(196,181,253,0.178)"/>
  <circle cx="2160.0" cy="994.0" r="4.44" fill="rgba(196,181,253,0.260)"/>
  <circle cx="648.0" cy="1008.2" r="8.89" fill="rgba(196,181,253,0.142)"/>
  <circle cx="1536.0" cy="1022.4" r="4.94" fill="rgba(196,181,253,0.224)"/>
  <circle cx="24.0" cy="1036.6" r="9.40" fill="rgba(196,181,253,0.306)"/>
  <circle cx="912.0" cy="1050.8" r="5.45" fill="rgba(196,181,253,0.188)"/>
  <circle cx="1800.0" cy="1065.0" r="9.90" fill="rgba(196,181,253,0.270)"/>
  <circle cx="288.0" cy="1079.2" r="5.95" fill="rgba(196,181,253,0.152)"/>
  <circle cx="1176.0" cy="1093.4" r="10.40" fill="rgba(196,181,253,0.234)"/>
  <circle cx="2064.0" cy="1107.6" r="6.46" fill="rgba(196,181,253,0.316)"/>
  <circle cx="552.0" cy="1121.8" r="10.91" fill="rgba(196,181,253,0.198)"/>
  <circle cx="1440.0" cy="1136.0" r="6.96" fill="rgba(196,181,253,0.280)"/>
  <circle cx="2328.0" cy="1150.2" r="11.41" fill="rgba(196,181,253,0.162)"/>
  <circle cx="816.0" cy="1164.4" r="7.46" fill="rgba(196,181,253,0.244)"/>
  <circle cx="1704.0" cy="1178.6" r="11.92" fill="rgba(196,181,253,0.126)"/>
  <circle cx="192.0" cy="1192.8" r="7.97" fill="rgba(196,181,253,0.208)"/>
  <circle cx="1080.0" cy="7.0" r="4.02" fill="rgba(196,181,253,0.290)"/>
  <circle cx="1968.0" cy="21.2" r="8.47" fill="rgba(196,181,253,0.172)"/>
  <circle cx="456.0" cy="35.4" r="4.52" fill="rgba(196,181,253,0.254)"/>
  <circle cx="1344.0" cy="49.6" r="8.98" fill="rgba(196,181,253,0.136)"/>
  <circle cx="2232.0" cy="63.8" r="5.03" fill="rgba(196,181,253,0.218)"/>
  <circle cx="720.0" cy="78.0" r="9.48" fill="rgba(196,181,253,0.300)"/>
  <circle cx="1608.0" cy="92.2" r="5.53" fill="rgba(196,181,253,0.182)"/>
  <circle cx="96.0" cy="106.4" r="9.98" fill="rgba(196,181,253,0.264)"/>
  <circle cx="984.0" cy="120.6" r="6.04" fill="rgba(196,181,253,0.146)"/>
  <circle cx="1872.0" cy="134.8" r="10.49" fill="rgba(196,181,253,0.228)"/>
  <circle cx="360.0" cy="149.0" r="6.54" fill="rgba(196,181,253,0.310)"/>
  <circle cx="1248.0" cy="163.2" r="10.99" fill="rgba(196,181,253,0.192)"/>
  <circle cx="2136.0" cy="177.4" r="7.04" fill="rgba(196,181,253,0.274)"/>
  <circle cx="624.0" cy="191.6" r="11.50" fill="rgba(196,181,253,0.156)"/>
  <circle cx="1512.0" cy="205.8" r="7.55" fill="rgba(196,181,253,0.238)"/>
  <circle cx="0.0" cy="220.0" r="3.60" fill="rgba(196,181,253,0.120)"/>
  <circle cx="888.0" cy="234.2" r="8.05" fill="rgba(196,181,253,0.202)"/>
  <circle cx="1776.0" cy="248.4" r="4.10" fill="rgba(196,181,253,0.284)"/>
  <circle cx="264.0" cy="262.6" r="8.56" fill="rgba(196,181,253,0.166)"/>
  <circle cx="1152.0" cy="276.8" r="4.61" fill="rgba(196,181,253,0.248)"/>
  <circle cx="2040.0" cy="291.0" r="9.06" fill="rgba(196,181,253,0.130)"/>
  <circle cx="528.0" cy="305.2" r="5.11" fill="rgba(196,181,253,0.212)"/>
  <circle cx="1416.0" cy="319.4" r="9.56" fill="rgba(196,181,253,0.294)"/>
  <circle cx="2304.0" cy="333.6" r="5.62" fill="rgba(196,181,253,0.176)"/>
  <circle cx="792.0" cy="347.8" r="10.07" fill="rgba(196,181,253,0.258)"/>
  <circle cx="1680.0" cy="362.0" r="6.12" fill="rgba(196,181,253,0.140)"/>
  <circle cx="168.0" cy="376.2" r="10.57" fill="rgba(196,181,253,0.222)"/>
  <circle cx="1056.0" cy="390.4" r="6.62" fill="rgba(196,181,253,0.304)"/>
  <circle cx="1944.0" cy="404.6" r="11.08" fill="rgba(196,181,253,0.186)"/>
  <circle cx="432.0" cy="418.8" r="7.13" fill="rgba(196,181,253,0.268)"/>
  <circle cx="1320.0" cy="433.0" r="11.58" fill="rgba(196,181,253,0.150)"/>
  <circle cx="2208.0" cy="447.2" r="7.63" fill="rgba(196,181,253,0.232)"/>
  <circle cx="696.0" cy="461.4" r="3.68" fill="rgba(196,181,253,0.314)"/>
  <circle cx="1584.0" cy="475.6" r="8.14" fill="rgba(196,181,253,0.196)"/>
  <circle cx="72.0" cy="489.8" r="4.19" fill="rgba(196,181,253,0.278)"/>
  <circle cx="960.0" cy="504.0" r="8.64" fill="rgba(196,181,253,0.160)"/>
  <circle cx="1848.0" cy="518.2" r="4.69" fill="rgba(196,181,253,0.242)"/>
  <circle cx="336.0" cy="532.4" r="9.14" fill="rgba(196,181,253,0.124)"/>
  <circle cx="1224.0" cy="546.6" r="5.20" fill="rgba(196,181,253,0.206)"/>
  <circle cx="2112.0" cy="560.8" r="9.65" fill="rgba(196,181,253,0.288)"/>
  <circle cx="600.0" cy="575.0" r="5.70" fill="rgba(196,181,253,0.170)"/>
  <circle cx="1488.0" cy="589.2" r="10.15" fill="rgba(196,181,253,0.252)"/>
  <circle cx="2376.0" cy="603.4" r="6.20" fill="rgba(196,181,253,0.134)"/>
  <circle cx="864.0" cy="617.6" r="10.66" fill="rgba(196,181,253,0.216)"/>
  <circle cx="1752.0" cy="631.8" r="6.71" fill="rgba(196,181,253,0.298)"/>
  <circle cx="240.0" cy="646.0" r="11.16" fill="rgba(196,181,253,0.180)"/>
  <circle cx="1128.0" cy="660.2" r="7.21" fill="rgba(196,181,253,0.262)"/>
  <circle cx="2016.0" cy="674.4" r="11.66" fill="rgba(196,181,253,0.144)"/>
  <circle cx="504.0" cy="688.6" r="7.72" fill="rgba(196,181,253,0.226)"/>
  <circle cx="1392.0" cy="702.8" r="3.77" fill="rgba(196,181,253,0.308)"/>
  <circle cx="2280.0" cy="717.0" r="8.22" fill="rgba(196,181,253,0.190)"/>
  <circle cx="768.0" cy="731.2" r="4.27" fill="rgba(196,181,253,0.272)"/>
  <circle cx="1656.0" cy="745.4" r="8.72" fill="rgba(196,181,253,0.154)"/>
  <circle cx="144.0" cy="759.6" r="4.78" fill="rgba(196,181,253,0.236)"/>
  <circle cx="1032.0" cy="773.8" r="9.23" fill="rgba(196,181,253,0.318)"/>
  <circle cx="1920.0" cy="788.0" r="5.28" fill="rgba(196,181,253,0.200)"/>
  <circle cx="408.0" cy="802.2" r="9.73" fill="rgba(196,181,253,0.282)"/>
  <circle cx="1296.0" cy="816.4" r="5.78" fill="rgba(196,181,253,0.164)"/>
  <circle cx="2184.0" cy="830.6" r="10.24" fill="rgba(196,181,253,0.246)"/>
  <circle cx="672.0" cy="844.8" r="6.29" fill="rgba(196,181,253,0.128)"/>
  <circle cx="1560.0" cy="859.0" r="10.74" fill="rgba(196,181,253,0.210)"/>
  <circle cx="48.0" cy="873.2" r="6.79" fill="rgba(196,181,253,0.292)"/>
  <circle cx="936.0" cy="887.4" r="11.24" fill="rgba(196,181,253,0.174)"/>
  <circle cx="1824.0" cy="901.6" r="7.30" fill="rgba(196,181,253,0.256)"/>
  <circle cx="312.0" cy="915.8" r="11.75" fill="rgba(196,181,253,0.138)"/>
  <circle cx="1200.0" cy="930.0" r="7.80" fill="rgba(196,181,253,0.220)"/>
  <circle cx="2088.0" cy="944.2" r="3.85" fill="rgba(196,181,253,0.302)"/>
  <circle cx="576.0" cy="958.4" r="8.30" fill="rgba(196,181,253,0.184)"/>
  <circle cx="1464.0" cy="972.6" r="4.36" fill="rgba(196,181,253,0.266)"/>
  <circle cx="2352.0" cy="986.8" r="8.81" fill="rgba(196,181,253,0.148)"/>
  <circle cx="840.0" cy="1001.0" r="4.86" fill="rgba(196,181,253,0.230)"/>
  <circle cx="1728.0" cy="1015.2" r="9.31" fill="rgba(196,181,253,0.312)"/>
  <circle cx="216.0" cy="1029.4" r="5.36" fill="rgba(196,181,253,0.194)"/>
  <circle cx="1104.0" cy="1043.6" r="9.82" fill="rgba(196,181,253,0.276)"/>
  <circle cx="1992.0" cy="1057.8" r="5.87" fill="rgba(196,181,253,0.158)"/>
  <circle cx="480.0" cy="1072.0" r="10.32" fill="rgba(196,181,253,0.240)"/>
  <circle cx="1368.0" cy="1086.2" r="6.37" fill="rgba(196,181,253,0.122)"/>
  <circle cx="2256.0" cy="1100.4" r="10.82" fill="rgba(196,181,253,0.204)"/>
  <circle cx="744.0" cy="1114.6" r="6.88" fill="rgba(196,181,253,0.286)"/>
  <circle cx="1632.0" cy="1128.8" r="11.33" fill="rgba(196,181,253,0.168)"/>
  <circle cx="120.0" cy="1143.0" r="7.38" fill="rgba(196,181,253,0.250)"/>
  <circle cx="1008.0" cy="1157.2" r="11.83" fill="rgba(196,181,253,0.132)"/>
  <circle cx="1896.0" cy="1171.4" r="7.88" fill="rgba(196,181,253,0.214)"/>
  <circle cx="384.0" cy="1185.6" r="3.94" fill="rgba(196,181,253,0.296)"/>
  <circle cx="1272.0" cy="1199.8" r="8.39" fill="rgba(196,181,253,0.178)"/>
  <circle cx="2160.0" cy="14.0" r="4.44" fill="rgba(196,181,253,0.260)"/>
  <circle cx="648.0" cy="28.2" r="8.89" fill="rgba(196,181,253,0.142)"/>
  <circle cx="1536.0" cy="42.4" r="4.94" fill="rgba(196,181,253,0.224)"/>
  <circle cx="24.0" cy="56.6" r="9.40" fill="rgba(196,181,253,0.306)"/>
  <circle cx="912.0" cy="70.8" r="5.45" fill="rgba(196,181,253,0.188)"/>
  <circle cx="1800.0" cy="85.0" r="9.90" fill="rgba(196,181,253,0.270)"/>
  <circle cx="288.0" cy="99.2" r="5.95" fill="rgba(196,181,253,0.152)"/>
  <circle cx="1176.0" cy="113.4" r="10.40" fill="rgba(196,181,253,0.234)"/>
  <circle cx="2064.0" cy="127.6" r="6.46" fill="rgba(196,181,253,0.316)"/>
  <circle cx="552.0" cy="141.8" r="10.91" fill="rgba(196,181,253,0.198)"/>
  <circle cx="1440.0" cy="156.0" r="6.96" fill="rgba(196,181,253,0.280)"/>
  <circle cx="2328.0" cy="170.2" r="11.41" fill="rgba(196,181,253,0.162)"/>
  <circle cx="816.0" cy="184.4" r="7.46" fill="rgba(196,181,253,0.244)"/>
  <circle cx="1704.0" cy="198.6" r="11.92" fill="rgba(196,181,253,0.126)"/>
  <circle cx="192.0" cy="212.8" r="7.97" fill="rgba(196,181,253,0.208)"/>
  <circle cx="1080.0" cy="227.0" r="4.02" fill="rgba(196,181,253,0.290)"/>
  <circle cx="1968.0" cy="241.2" r="8.47" fill="rgba(196,181,253,0.172)"/>
  <circle cx="456.0" cy="255.4" r="4.52" fill="rgba(196,181,253,0.254)"/>
  <circle cx="1344.0" cy="269.6" r="8.98" fill="rgba(196,181,253,0.136)"/>
  <circle cx="2232.0" cy="283.8" r="5.03" fill="rgba(196,181,253,0.218)"/>
  <circle cx="720.0" cy="298.0" r="9.48" fill="rgba(196,181,253,0.300)"/>
  <circle cx="1608.0" cy="312.2" r="5.53" fill="rgba(196,181,253,0.182)"/>
  <circle cx="96.0" cy="326.4" r="9.98" fill="rgba(196,181,253,0.264)"/>
  <circle cx="984.0" cy="340.6" r="6.04" fill="rgba(196,181,253,0.146)"/>
  <circle cx="1872.0" cy="354.8" r="10.49" fill="rgba(196,181,253,0.228)"/>
  <circle cx="360.0" cy="369.0" r="6.54" fill="rgba(196,181,253,0.310)"/>
  <circle cx="1248.0" cy="383.2" r="10.99" fill="rgba(196,181,253,0.192)"/>
  <circle cx="2136.0" cy="397.4" r="7.04" fill="rgba(196,181,253,0.274)"/>
  <circle cx="624.0" cy="411.6" r="11.50" fill="rgba(196,181,253,0.156)"/>
  <circle cx="1512.0" cy="425.8" r="7.55" fill="rgba(196,181,253,0.238)"/>
  <circle cx="0.0" cy="440.0" r="3.60" fill="rgba(196,181,253,0.120)"/>
  <circle cx="888.0" cy="454.2" r="8.05" fill="rgba(196,181,253,0.202)"/>
  <circle cx="1776.0" cy="468.4" r="4.10" fill="rgba(196,181,253,0.284)"/>
  <circle cx="264.0" cy="482.6" r="8.56" fill="rgba(196,181,253,0.166)"/>
  <circle cx="1152.0" cy="496.8" r="4.61" fill="rgba(196,181,253,0.248)"/>
  <circle cx="2040.0" cy="511.0" r="9.06" fill="rgba(196,181,253,0.130)"/>
  <circle cx="528.0" cy="525.2" r="5.11" fill="rgba(196,181,253,0.212)"/>
  <circle cx="1416.0" cy="539.4" r="9.56" fill="rgba(196,181,253,0.294)"/>
  <circle cx="2304.0" cy="553.6" r="5.62" fill="rgba(196,181,253,0.176)"/>
  <circle cx="792.0" cy="567.8" r="10.07" fill="rgba(196,181,253,0.258)"/>
  <circle cx="1680.0" cy="582.0" r="6.12" fill="rgba(196,181,253,0.140)"/>
  <circle cx="168.0" cy="596.2" r="10.57" fill="rgba(196,181,253,0.222)"/>
  <circle cx="1056.0" cy="610.4" r="6.62" fill="rgba(196,181,253,0.304)"/>
  <circle cx="1944.0" cy="624.6" r="11.08" fill="rgba(196,181,253,0.186)"/>
  <circle cx="432.0" cy="638.8" r="7.13" fill="rgba(196,181,253,0.268)"/>
  <circle cx="1320.0" cy="653.0" r="11.58" fill="rgba(196,181,253,0.150)"/>
  <circle cx="2208.0" cy="667.2" r="7.63" fill="rgba(196,181,253,0.232)"/>
  <circle cx="696.0" cy="681.4" r="3.68" fill="rgba(196,181,253,0.314)"/>
  <circle cx="1584.0" cy="695.6" r="8.14" fill="rgba(196,181,253,0.196)"/>
  <circle cx="72.0" cy="709.8" r="4.19" fill="rgba(196,181,253,0.278)"/>
  
</svg>