<svg xmlns="http://www.w3.org/2000/svg" width="2400" height="756" viewBox="0 0 2400 756">
  <circle cx="0.0" cy="0.0" r="2.6" fill="#c4b5fd" opacity="0.650"/>
  <circle cx="888.0" cy="10.8" r="1.8" fill="#c4b5fd" opacity="0.908"/>
  <circle cx="1776.0" cy="21.6" r="1.8" fill="#c4b5fd" opacity="0.999"/>
  <circle cx="264.0" cy="32.4" r="1.8" fill="#c4b5fd" opacity="0.862"/>
  <circle cx="1152.0" cy="43.2" r="2.6" fill="#c4b5fd" opacity="0.588"/>
  <circle cx="2040.0" cy="54.0" r="1.8" fill="#c4b5fd" opacity="0.354"/>
  <circle cx="528.0" cy="64.8" r="1.8" fill="#c4b5fd" opacity="0.312"/>
  <circle cx="1416.0" cy="75.6" r="1.8" fill="#c4b5fd" opacity="0.490"/>
  <circle cx="2304.0" cy="86.4" r="2.6" fill="#c4b5fd" opacity="0.772"/>
  <circle cx="792.0" cy="97.2" r="1.8" fill="#c4b5fd" opacity="0.975"/>
  <circle cx="1680.0" cy="108.0" r="1.8" fill="#c4b5fd" opacity="0.966"/>
  <circle cx="168.0" cy="118.8" r="1.8" fill="#c4b5fd" opacity="0.752"/>
  <circle cx="1056.0" cy="129.6" r="2.6" fill="#c4b5fd" opacity="0.471"/>
  <circle cx="1944.0" cy="140.4" r="1.8" fill="#c4b5fd" opacity="0.307"/>
  <circle cx="432.0" cy="151.2" r="1.8" fill="#c4b5fd" opacity="0.366"/>
  <circle cx="1320.0" cy="162.0" r="1.8" fill="#c4b5fd" opacity="0.609"/>
  <circle cx="2208.0" cy="172.8" r="2.6" fill="#c4b5fd" opacity="0.879"/>
  <circle cx="696.0" cy="183.6" r="1.8" fill="#c4b5fd" opacity="1.000"/>
  <circle cx="1584.0" cy="194.4" r="1.8" fill="#c4b5fd" opacity="0.893"/>
  <circle cx="72.0" cy="205.2" r="1.8" fill="#c4b5fd" opacity="0.628"/>
  <circle cx="960.0" cy="216.0" r="2.6" fill="#c4b5fd" opacity="0.378"/>
  <circle cx="1848.0" cy="226.8" r="1.8" fill="#c4b5fd" opacity="0.304"/>
  <circle cx="336.0" cy="237.6" r="1.8" fill="#c4b5fd" opacity="0.455"/>
  <circle cx="1224.0" cy="248.4" r="1.8" fill="#c4b5fd" opacity="0.733"/>
  <circle cx="2112.0" cy="259.2" r="2.6" fill="#c4b5fd" opacity="0.957"/>
  <circle cx="600.0" cy="270.0" r="1.8" fill="#c4b5fd" opacity="0.981"/>
  <circle cx="1488.0" cy="280.8" r="1.8" fill="#c4b5fd" opacity="0.790"/>
  <circle cx="2376.0" cy="291.6" r="1.8" fill="#c4b5fd" opacity="0.508"/>
  <circle cx="864.0" cy="302.4" r="2.6" fill="#c4b5fd" opacity="0.318"/>
  <circle cx="1752.0" cy="313.2" r="1.8" fill="#c4b5fd" opacity="0.344"/>
  <circle cx="240.0" cy="324.0" r="1.8" fill="#c4b5fd" opacity="0.569"/>
  <circle cx="1128.0" cy="334.8" r="1.8" fill="#c4b5fd" opacity="0.847"/>
  <circle cx="2016.0" cy="345.6" r="2.6" fill="#c4b5fd" opacity="0.996"/>
  <circle cx="504.0" cy="356.4" r="1.8" fill="#c4b5fd" opacity="0.921"/>
  <circle cx="1392.0" cy="367.2" r="1.8" fill="#c4b5fd" opacity="0.669"/>
  <circle cx="2280.0" cy="378.0" r="1.8" fill="#c4b5fd" opacity="0.405"/>
  <circle cx="768.0" cy="388.8" r="2.6" fill="#c4b5fd" opacity="0.300"/>
  <circle cx="1656.0" cy="399.6" r="1.8" fill="#c4b5fd" opacity="0.423"/>
  <circle cx="144.0" cy="410.4" r="1.8" fill="#c4b5fd" opacity="0.693"/>
  <circle cx="1032.0" cy="421.2" r="1.8" fill="#c4b5fd" opacity="0.936"/>
  <circle cx="1920.0" cy="432.0" r="2.6" fill="#c4b5fd" opacity="0.992"/>
  <circle cx="408.0" cy="442.8" r="1.8" fill="#c4b5fd" opacity="0.826"/>
  <circle cx="1296.0" cy="453.6" r="1.8" fill="#c4b5fd" opacity="0.546"/>
  <circle cx="2184.0" cy="464.4" r="1.8" fill="#c4b5fd" opacity="0.333"/>
  <circle cx="672.0" cy="475.2" r="2.6" fill="#c4b5fd" opacity="0.327"/>
  <circle cx="1560.0" cy="486.0" r="1.8" fill="#c4b5fd" opacity="0.530"/>
  <circle cx="48.0" cy="496.8" r="1.8" fill="#c4b5fd" opacity="0.812"/>
  <circle cx="936.0" cy="507.6" r="1.8" fill="#c4b5fd" opacity="0.988"/>
  <circle cx="1824.0" cy="518.4" r="2.6" fill="#c4b5fd" opacity="0.945"/>
  <circle cx="312.0" cy="529.2" r="1.8" fill="#c4b5fd" opacity="0.709"/>
  <circle cx="1200.0" cy="540.0" r="1.8" fill="#c4b5fd" opacity="0.436"/>
  <circle cx="2088.0" cy="550.8" r="1.8" fill="#c4b5fd" opacity="0.301"/>
  <circle cx="576.0" cy="561.6" r="2.6" fill="#c4b5fd" opacity="0.394"/>
  <circle cx="1464.0" cy="572.4" r="1.8" fill="#c4b5fd" opacity="0.653"/>
  <circle cx="2352.0" cy="583.2" r="1.8" fill="#c4b5fd" opacity="0.910"/>
  <circle cx="840.0" cy="594.0" r="1.8" fill="#c4b5fd" opacity="0.998"/>
  <circle cx="1728.0" cy="604.8" r="2.6" fill="#c4b5fd" opacity="0.860"/>
  <circle cx="216.0" cy="615.6" r="1.8" fill="#c4b5fd" opacity="0.585"/>
  <circle cx="1104.0" cy="626.4" r="1.8" fill="#c4b5fd" opacity="0.352"/>
  <circle cx="1992.0" cy="637.2" r="1.8" fill="#c4b5fd" opacity="0.313"/>
  
</svg>