<svg xmlns="http://www.w3.org/2000/svg" width="2400" height="432" viewBox="0 0 2400 1080" preserveAspectRatio="none">
  <g opacity="0.180">
    <ellipse cx="0" cy="80" rx="70" ry="22.400000000000002" fill="#c4b5fd"/>
    <ellipse cx="35" cy="74" rx="44.800000000000004" ry="18.2" fill="#c4b5fd"/>
    <ellipse cx="-28" cy="84" rx="39.2" ry="15.4" fill="#c4b5fd"/>
  </g>
  <g opacity="0.341">
    <ellipse cx="673" cy="143" rx="106.5" ry="34.08" fill="#c4b5fd"/>
    <ellipse cx="726.25" cy="137" rx="68.16" ry="27.69" fill="#c4b5fd"/>
    <ellipse cx="630.4" cy="147" rx="59.64000000000001" ry="23.43" fill="#c4b5fd"/>
  </g>
  <g opacity="0.281">
    <ellipse cx="1346" cy="206" rx="83" ry="26.560000000000002" fill="#c4b5fd"/>
    <ellipse cx="1387.5" cy="200" rx="53.120000000000005" ry="21.580000000000002" fill="#c4b5fd"/>
    <ellipse cx="1312.8" cy="210" rx="46.480000000000004" ry="18.26" fill="#c4b5fd"/>
  </g>
  <g opacity="0.222">
    <ellipse cx="1819" cy="269" rx="119.5" ry="38.24" fill="#c4b5fd"/>
    <ellipse cx="1878.75" cy="263" rx="76.48" ry="31.07" fill="#c4b5fd"/>
    <ellipse cx="1771.2" cy="273" rx="66.92" ry="26.29" fill="#c4b5fd"/>
  </g>
  <g opacity="0.382">
    <ellipse cx="2492" cy="112" rx="96" ry="30.72" fill="#c4b5fd"/>
    <ellipse cx="2540" cy="106" rx="61.44" ry="24.96" fill="#c4b5fd"/>
    <ellipse cx="2453.6" cy="116" rx="53.760000000000005" ry="21.12" fill="#c4b5fd"/>
  </g>
  <g opacity="0.323">
    <ellipse cx="3165" cy="175" rx="72.5" ry="23.2" fill="#c4b5fd"/>
    <ellipse cx="3201.25" cy="169" rx="46.4" ry="18.85" fill="#c4b5fd"/>
    <ellipse cx="3136" cy="179" rx="40.6" ry="15.95" fill="#c4b5fd"/>
  </g>
  
</svg>