<svg xmlns="http://www.w3.org/2000/svg" width="2400" height="216" viewBox="0 0 2400 1080" preserveAspectRatio="none">
  <rect x="0" y="900" width="2400" height="180" fill="#06040b"/>
  <rect x="0" y="899" width="2400" height="1.5" fill="rgba(196,181,253,0.35)"/>
  <g stroke="rgba(196,181,253,0.5)" stroke-width="1" stroke-linecap="round">
    <line x1="0" y1="898" x2="-2" y2="892"/>
    <line x1="1" y1="898" x2="1" y2="890"/>
    <line x1="3" y1="898" x2="4" y2="893"/>
  </g>
  <g stroke="rgba(196,181,253,0.5)" stroke-width="1" stroke-linecap="round">
    <line x1="183" y1="898" x2="181" y2="892"/>
    <line x1="184" y1="898" x2="184" y2="890"/>
    <line x1="186" y1="898" x2="187" y2="893"/>
  </g>
  <g stroke="rgba(196,181,253,0.5)" stroke-width="1" stroke-linecap="round">
    <line x1="366" y1="898" x2="364" y2="892"/>
    <line x1="367" y1="898" x2="367" y2="890"/>
    <line x1="369" y1="898" x2="370" y2="893"/>
  </g>
  <g stroke="rgba(196,181,253,0.5)" stroke-width="1" stroke-linecap="round">
    <line x1="549" y1="898" x2="547" y2="892"/>
    <line x1="550" y1="898" x2="550" y2="890"/>
    <line x1="552" y1="898" x2="553" y2="893"/>
  </g>
  <g stroke="rgba(196,181,253,0.5)" stroke-width="1" stroke-linecap="round">
    <line x1="732" y1="898" x2="730" y2="892"/>
    <line x1="733" y1="898" x2="733" y2="890"/>
    <line x1="735" y1="898" x2="736" y2="893"/>
  </g>
  <g stroke="rgba(196,181,253,0.5)" stroke-width="1" stroke-linecap="round">
    <line x1="915" y1="898" x2="913" y2="892"/>
    <line x1="916" y1="898" x2="916" y2="890"/>
    <line x1="918" y1="898" x2="919" y2="893"/>
  </g>
  <g stroke="rgba(196,181,253,0.5)" stroke-width="1" stroke-linecap="round">
    <line x1="1098" y1="898" x2="1096" y2="892"/>
    <line x1="1099" y1="898" x2="1099" y2="890"/>
    <line x1="1101" y1="898" x2="1102" y2="893"/>
  </g>
  <g stroke="rgba(196,181,253,0.5)" stroke-width="1" stroke-linecap="round">
    <line x1="1281" y1="898" x2="1279" y2="892"/>
    <line x1="1282" y1="898" x2="1282" y2="890"/>
    <line x1="1284" y1="898" x2="1285" y2="893"/>
  </g>
  <g stroke="rgba(196,181,253,0.5)" stroke-width="1" stroke-linecap="round">
    <line x1="1464" y1="898" x2="1462" y2="892"/>
    <line x1="1465" y1="898" x2="1465" y2="890"/>
    <line x1="1467" y1="898" x2="1468" y2="893"/>
  </g>
  <g stroke="rgba(196,181,253,0.5)" stroke-width="1" stroke-linecap="round">
    <line x1="1647" y1="898" x2="1645" y2="892"/>
    <line x1="1648" y1="898" x2="1648" y2="890"/>
    <line x1="1650" y1="898" x2="1651" y2="893"/>
  </g>
  <g stroke="rgba(196,181,253,0.5)" stroke-width="1" stroke-linecap="round">
    <line x1="1800" y1="898" x2="1798" y2="892"/>
    <line x1="1801" y1="898" x2="1801" y2="890"/>
    <line x1="1803" y1="898" x2="1804" y2="893"/>
  </g>
  <g stroke="rgba(196,181,253,0.5)" stroke-width="1" stroke-linecap="round">
    <line x1="1983" y1="898" x2="1981" y2="892"/>
    <line x1="1984" y1="898" x2="1984" y2="890"/>
    <line x1="1986" y1="898" x2="1987" y2="893"/>
  </g>
  <g stroke="rgba(196,181,253,0.5)" stroke-width="1" stroke-linecap="round">
    <line x1="2166" y1="898" x2="2164" y2="892"/>
    <line x1="2167" y1="898" x2="2167" y2="890"/>
    <line x1="2169" y1="898" x2="2170" y2="893"/>
  </g>
  <g stroke="rgba(196,181,253,0.5)" stroke-width="1" stroke-linecap="round">
    <line x1="2349" y1="898" x2="2347" y2="892"/>
    <line x1="2350" y1="898" x2="2350" y2="890"/>
    <line x1="2352" y1="898" x2="2353" y2="893"/>
  </g>
  
</svg>