<svg xmlns="http://www.w3.org/2000/svg" width="2400" height="432" viewBox="0 0 2400 432">
  <g opacity="0.6">
  <circle cx="0.0" cy="0.0" r="1.2" fill="#c4b5fd"/>
  <circle cx="888.0" cy="306.7" r="0.6" fill="#c4b5fd"/>
  <circle cx="1776.0" cy="181.4" r="0.6" fill="#c4b5fd"/>
  <circle cx="264.0" cy="56.2" r="1.2" fill="#c4b5fd"/>
  <circle cx="1152.0" cy="362.9" r="0.6" fill="#c4b5fd"/>
  <circle cx="2040.0" cy="237.6" r="0.6" fill="#c4b5fd"/>
  <circle cx="528.0" cy="112.3" r="1.2" fill="#c4b5fd"/>
  <circle cx="1416.0" cy="419.0" r="0.6" fill="#c4b5fd"/>
  <circle cx="2304.0" cy="293.8" r="0.6" fill="#c4b5fd"/>
  <circle cx="792.0" cy="168.5" r="1.2" fill="#c4b5fd"/>
  <circle cx="1680.0" cy="43.2" r="0.6" fill="#c4b5fd"/>
  <circle cx="168.0" cy="349.9" r="0.6" fill="#c4b5fd"/>
  <circle cx="1056.0" cy="224.6" r="1.2" fill="#c4b5fd"/>
  <circle cx="1944.0" cy="99.4" r="0.6" fill="#c4b5fd"/>
  <circle cx="432.0" cy="406.1" r="0.6" fill="#c4b5fd"/>
  <circle cx="1320.0" cy="280.8" r="1.2" fill="#c4b5fd"/>
  <circle cx="2208.0" cy="155.5" r="0.6" fill="#c4b5fd"/>
  <circle cx="696.0" cy="30.2" r="0.6" fill="#c4b5fd"/>
  <circle cx="1584.0" cy="337.0" r="1.2" fill="#c4b5fd"/>
  <circle cx="72.0" cy="211.7" r="0.6" fill="#c4b5fd"/>
  <circle cx="960.0" cy="86.4" r="0.6" fill="#c4b5fd"/>
  <circle cx="1848.0" cy="393.1" r="1.2" fill="#c4b5fd"/>
  <circle cx="336.0" cy="267.8" r="0.6" fill="#c4b5fd"/>
  <circle cx="1224.0" cy="142.6" r="0.6" fill="#c4b5fd"/>
  <circle cx="2112.0" cy="17.3" r="1.2" fill="#c4b5fd"/>
  <circle cx="600.0" cy="324.0" r="0.6" fill="#c4b5fd"/>
  <circle cx="1488.0" cy="198.7" r="0.6" fill="#c4b5fd"/>
  <circle cx="2376.0" cy="73.4" r="1.2" fill="#c4b5fd"/>
  <circle cx="864.0" cy="380.2" r="0.6" fill="#c4b5fd"/>
  <circle cx="1752.0" cy="254.9" r="0.6" fill="#c4b5fd"/>
  <circle cx="240.0" cy="129.6" r="1.2" fill="#c4b5fd"/>
  <circle cx="1128.0" cy="4.3" r="0.6" fill="#c4b5fd"/>
  <circle cx="2016.0" cy="311.0" r="0.6" fill="#c4b5fd"/>
  <circle cx="504.0" cy="185.8" r="1.2" fill="#c4b5fd"/>
  <circle cx="1392.0" cy="60.5" r="0.6" fill="#c4b5fd"/>
  <circle cx="2280.0" cy="367.2" r="0.6" fill="#c4b5fd"/>
  <circle cx="768.0" cy="241.9" r="1.2" fill="#c4b5fd"/>
  <circle cx="1656.0" cy="116.6" r="0.6" fill="#c4b5fd"/>
  <circle cx="144.0" cy="423.4" r="0.6" fill="#c4b5fd"/>
  <circle cx="1032.0" cy="298.1" r="1.2" fill="#c4b5fd"/>
  <circle cx="1920.0" cy="172.8" r="0.6" fill="#c4b5fd"/>
  <circle cx="408.0" cy="47.5" r="0.6" fill="#c4b5fd"/>
  <circle cx="1296.0" cy="354.2" r="1.2" fill="#c4b5fd"/>
  <circle cx="2184.0" cy="229.0" r="0.6" fill="#c4b5fd"/>
  <circle cx="672.0" cy="103.7" r="0.6" fill="#c4b5fd"/>
  <circle cx="1560.0" cy="410.4" r="1.2" fill="#c4b5fd"/>
  <circle cx="48.0" cy="285.1" r="0.6" fill="#c4b5fd"/>
  <circle cx="936.0" cy="159.8" r="0.6" fill="#c4b5fd"/>
  <circle cx="1824.0" cy="34.6" r="1.2" fill="#c4b5fd"/>
  <circle cx="312.0" cy="341.3" r="0.6" fill="#c4b5fd"/>
  <circle cx="1200.0" cy="216.0" r="0.6" fill="#c4b5fd"/>
  <circle cx="2088.0" cy="90.7" r="1.2" fill="#c4b5fd"/>
  <circle cx="576.0" cy="397.4" r="0.6" fill="#c4b5fd"/>
  <circle cx="1464.0" cy="272.2" r="0.6" fill="#c4b5fd"/>
  <circle cx="2352.0" cy="146.9" r="1.2" fill="#c4b5fd"/>
  <circle cx="840.0" cy="21.6" r="0.6" fill="#c4b5fd"/>
  <circle cx="1728.0" cy="328.3" r="0.6" fill="#c4b5fd"/>
  <circle cx="216.0" cy="203.0" r="1.2" fill="#c4b5fd"/>
  <circle cx="1104.0" cy="77.8" r="0.6" fill="#c4b5fd"/>
  <circle cx="1992.0" cy="384.5" r="0.6" fill="#c4b5fd"/>
  <circle cx="480.0" cy="259.2" r="1.2" fill="#c4b5fd"/>
  <circle cx="1368.0" cy="133.9" r="0.6" fill="#c4b5fd"/>
  <circle cx="2256.0" cy="8.6" r="0.6" fill="#c4b5fd"/>
  <circle cx="744.0" cy="315.4" r="1.2" fill="#c4b5fd"/>
  <circle cx="1632.0" cy="190.1" r="0.6" fill="#c4b5fd"/>
  <circle cx="120.0" cy="64.8" r="0.6" fill="#c4b5fd"/>
  <circle cx="1008.0" cy="371.5" r="1.2" fill="#c4b5fd"/>
  <circle cx="1896.0" cy="246.2" r="0.6" fill="#c4b5fd"/>
  <circle cx="384.0" cy="121.0" r="0.6" fill="#c4b5fd"/>
  <circle cx="1272.0" cy="427.7" r="1.2" fill="#c4b5fd"/>
  <circle cx="2160.0" cy="302.4" r="0.6" fill="#c4b5fd"/>
  <circle cx="648.0" cy="177.1" r="0.6" fill="#c4b5fd"/>
  <circle cx="1536.0" cy="51.8" r="1.2" fill="#c4b5fd"/>
  <circle cx="24.0" cy="358.6" r="0.6" fill="#c4b5fd"/>
  <circle cx="912.0" cy="233.3" r="0.6" fill="#c4b5fd"/>
  <circle cx="1800.0" cy="108.0" r="1.2" fill="#c4b5fd"/>
  <circle cx="288.0" cy="414.7" r="0.6" fill="#c4b5fd"/>
  <circle cx="1176.0" cy="289.4" r="0.6" fill="#c4b5fd"/>
  <circle cx="2064.0" cy="164.2" r="1.2" fill="#c4b5fd"/>
  <circle cx="552.0" cy="38.9" r="0.6" fill="#c4b5fd"/>
  </g>
</svg>